<svg width="22" height="23" viewBox="0 0 22 23" fill="none" xmlns="http://www.w3.org/2000/svg">
<g id="data">
<g id="Icon">
<path d="M19.4333 20.6667C19.69 20.6667 19.8184 20.6667 19.9164 20.6167C20.0027 20.5728 20.0728 20.5027 20.1167 20.4164C20.1667 20.3184 20.1667 20.19 20.1667 19.9333V10.4C20.1667 10.1433 20.1667 10.015 20.1167 9.91693C20.0728 9.83069 20.0027 9.76058 19.9164 9.71663C19.8184 9.66668 19.69 9.66668 19.4333 9.66668L17.2333 9.66668C16.9766 9.66668 16.8483 9.66668 16.7503 9.71663C16.664 9.76057 16.5939 9.83069 16.55 9.91693C16.5 10.015 16.5 10.1433 16.5 10.4V12.6C16.5 12.8567 16.5 12.985 16.45 13.0831C16.4061 13.1693 16.336 13.2394 16.2497 13.2834C16.1517 13.3333 16.0234 13.3333 15.7667 13.3333H13.5667C13.31 13.3333 13.1816 13.3333 13.0836 13.3833C12.9973 13.4272 12.9272 13.4974 12.8833 13.5836C12.8333 13.6816 12.8333 13.81 12.8333 14.0667V16.2667C12.8333 16.5234 12.8333 16.6517 12.7834 16.7498C12.7394 16.836 12.6693 16.9061 12.5831 16.9501C12.485 17 12.3567 17 12.1 17H9.9C9.64331 17 9.51496 17 9.41692 17.05C9.33068 17.0939 9.26056 17.164 9.21662 17.2503C9.16667 17.3483 9.16667 17.4767 9.16667 17.7333V19.9333C9.16667 20.19 9.16667 20.3184 9.21662 20.4164C9.26056 20.5027 9.33068 20.5728 9.41692 20.6167C9.51496 20.6667 9.64331 20.6667 9.9 20.6667L19.4333 20.6667Z" stroke="#18112D" stroke-width="1.5" stroke-linecap="round" stroke-linejoin="round"/>
<path d="M9.16667 6.73334C9.16667 6.47665 9.16667 6.34831 9.21662 6.25026C9.26056 6.16402 9.33068 6.09391 9.41692 6.04997C9.51496 6.00001 9.64331 6.00001 9.9 6.00001H12.1C12.3567 6.00001 12.485 6.00001 12.5831 6.04997C12.6693 6.09391 12.7394 6.16402 12.7834 6.25026C12.8333 6.34831 12.8333 6.47665 12.8333 6.73334V8.93334C12.8333 9.19003 12.8333 9.31838 12.7834 9.41642C12.7394 9.50266 12.6693 9.57278 12.5831 9.61672C12.485 9.66668 12.3567 9.66668 12.1 9.66668H9.9C9.64331 9.66668 9.51496 9.66668 9.41692 9.61672C9.33068 9.57278 9.26056 9.50266 9.21662 9.41642C9.16667 9.31838 9.16667 9.19003 9.16667 8.93334V6.73334Z" stroke="#18112D" stroke-width="1.5" stroke-linecap="round" stroke-linejoin="round"/>
<path d="M2.75 12.2333C2.75 11.9767 2.75 11.8483 2.79996 11.7503C2.8439 11.664 2.91401 11.5939 3.00025 11.55C3.0983 11.5 3.22664 11.5 3.48333 11.5H5.68333C5.94002 11.5 6.06837 11.5 6.16641 11.55C6.25265 11.5939 6.32277 11.664 6.36671 11.7503C6.41667 11.8483 6.41667 11.9767 6.41667 12.2333V14.4333C6.41667 14.69 6.41667 14.8184 6.36671 14.9164C6.32277 15.0027 6.25265 15.0728 6.16641 15.1167C6.06837 15.1667 5.94002 15.1667 5.68333 15.1667H3.48333C3.22664 15.1667 3.0983 15.1667 3.00025 15.1167C2.91401 15.0728 2.8439 15.0027 2.79996 14.9164C2.75 14.8184 2.75 14.69 2.75 14.4333V12.2333Z" stroke="#18112D" stroke-width="1.5" stroke-linecap="round" stroke-linejoin="round"/>
<path d="M1.83333 3.06668C1.83333 2.80999 1.83333 2.68164 1.88329 2.5836C1.92723 2.49736 1.99735 2.42724 2.08359 2.3833C2.18163 2.33334 2.30998 2.33334 2.56667 2.33334H4.76667C5.02336 2.33334 5.1517 2.33334 5.24975 2.3833C5.33599 2.42724 5.4061 2.49736 5.45005 2.5836C5.5 2.68164 5.5 2.80999 5.5 3.06668V5.26668C5.5 5.52337 5.5 5.65171 5.45005 5.74976C5.4061 5.836 5.33599 5.90611 5.24975 5.95005C5.1517 6.00001 5.02336 6.00001 4.76667 6.00001H2.56667C2.30998 6.00001 2.18163 6.00001 2.08359 5.95005C1.99735 5.90611 1.92723 5.836 1.88329 5.74976C1.83333 5.65171 1.83333 5.52337 1.83333 5.26668V3.06668Z" stroke="#18112D" stroke-width="1.5" stroke-linecap="round" stroke-linejoin="round"/>
</g>
</g>
</svg>
